<?xml version="1.0" encoding="UTF-8"?>
<svg id="Layer_1" data-name="Layer 1" xmlns="http://www.w3.org/2000/svg" viewBox="0 0 236.48 210.61">
  <defs>
    <style>
      .cls-1 {
        stroke: #374b51;
      }

      .cls-1, .cls-2 {
        fill: #f58467;
        stroke-linecap: round;
        stroke-linejoin: round;
        stroke-width: 10.27px;
      }

      .cls-2 {
        stroke: #364b51;
      }
    </style>
  </defs>
  <g id="Generative_Object" data-name="Generative Object">
    <path class="cls-2" d="M195.64,189.13c.81,0,3.22-.88,3.09.54l-7.41,15.8c-.91.09-11-13.38-11.36-14.27-.06-.15-.18-.28-.31-.4,5.19-.17,10.88-1.64,15.99-1.67Z"/>
    <path class="cls-1" d="M170.79,5.42c5.46-2.66,5.85,14.4,8.43,17.16,2.14,2.29,5.33.68,7.26,3.51,2.92,4.28,3.5,22.05,6.47,25.84s12.04,7.85,15.59,11.7c2.71,2.94,3.24,7.4,5.69,10.73,7.6,10.32,14.5,11.56,16.28,26.33,3.22,26.69-3.14,27.97-15.5,47.78-3.07,4.93-9.66,24.93-13.34,26.72-1.03.5-6.22.69-8.34,1.37-2.44.78-8.9,4-10.3,4.1-2.16.15-5.29-2.5-7.85-3.12-3.58-.87-14.31-1.22-15.89-3.22-4.64-5.9-2.68-21.06-15.02-18.04h-.56c.16-4.29,5.77-15.91.82-18.45s-8.52,12.45-13,12.99c-3.32-.08-9.76-13.72-12.85-16.28-6.42-5.33-41.15,1.35-46.98,6.63-1.66,1.5-3.25,5.24-4.68,6.05-2.02,1.13-12.2-.35-15.91.68-9.45,2.63-11.86,12.16-24.03,3.8-8.04-5.53-3.28-4.51-1.86-10.04.56-2.19-10.97-31.64-12.95-35.59-1.86-3.72-5.03-5.89-6.47-9.75-.64-1.72-.96-21.84-.39-23.4.81-2.25.77-1.64,2.55-2.83,8.08-5.39,23.69-8.83,32.86-13.85,5.06-2.77,18.02-16.41,22.13-21.41,2.25-2.73,7.81-13.15,9.74-14.28,3.97-2.3,13.35,8.9,17.16,5.95,4.35-3.37,1.97-13.71,14.22-18.14,2.79-1.01,31.22-1.38,32.86-.39,4.74,2.87-4.58,13.85-2.45,17.65.65,1.17,16.85,13.02,18.63,13.75,13.14,5.34,11.87-31.11,17.65-33.93Z"/>
  </g>
</svg>