<?xml version="1.0" encoding="UTF-8"?>
<svg id="Layer_1" data-name="Layer 1" xmlns="http://www.w3.org/2000/svg" viewBox="0 0 512 203.1">
  <defs>
    <style>
      .cls-1 {
        fill: #fff;
      }

      .cls-2 {
        stroke: #2e2c2d;
      }

      .cls-2, .cls-3 {
        stroke-width: 10.21px;
      }

      .cls-2, .cls-3, .cls-4 {
        fill: none;
        stroke-linecap: round;
        stroke-linejoin: round;
      }

      .cls-3 {
        stroke: #2e2b2c;
      }

      .cls-4 {
        stroke: #fbfdfe;
        stroke-width: 7.42px;
      }

      .cls-5 {
        fill: #7aaf7b;
      }

      .cls-6 {
        fill: #a1d8f3;
      }

      .cls-7 {
        fill: #cec058;
      }
    </style>
  </defs>
  <g id="Generative_Object" data-name="Generative Object">
    <g>
      <path class="cls-7" d="M367.75,51.39h0c.17.23.08.66.25.92,3.65,5.47,5.09,24.32,8.62,31.3-10.15-1.2-33.99-.75-45.97-1.23-45.2-1.83-100.83-3.24-145.67-.95-6.65.34-15.31,1.81-22.29,2.35-11.92.92-24.31,2.43-36.16,3.97l-.21-4.47c-1.27-24.6,9.44-32.09,27.52-44.58,3.8-2.63,7.45-2.9,4.36-6.94.31.07.63.1.94.17,3.45.79,25.89,5.14,27.28,4.71,2.58-.8,9.24-12.01,12.48-15.15,33.23-32.19,63.43-10.36,94.64,9.46,3.46,2.2,9.1,9.78,11.42,10.6,1.48.52,20.12-6.83,27.55-6.51,9.02.38,30.1,9.54,35.24,16.36h0Z"/>
      <path class="cls-5" d="M159.14,31.93c-.31-.07-.63-.1-.94-.17,3.09,4.04-.56,4.31-4.36,6.94-18.08,12.49-28.79,19.98-27.52,44.58l.21,4.47c-31.12,4.04-62.03,7.42-90.56,21.55l-.71-3.8c-6.79-23.52,4.87-46.43,30.03-50.98,3.8-.69,11.84,1.07,14.88-.56,1.46-.78,10.32-14.98,14.81-18.93,23.19-20.35,39.25-8.81,63.21-3.28.31.07.63.1.94.17Z"/>
      <path class="cls-5" d="M489.72,115.2c-19.79-13.08-88.93-28.73-113.1-31.6-3.53-6.98-4.97-25.83-8.62-31.3-.18-.26-.08-.7-.25-.92h0l.8-.75c21.81-20.41,52.12-21.57,72.52,2.02,4.08,4.72,8.95,19.09,9.82,19.76,1.6,1.23,13.15.27,18.01,2.13,15.27,5.84,25.26,20.07,22.22,36.56l-1.39,4.09Z"/>
      <g>
        <path class="cls-6" d="M376.63,83.61c24.17,2.87,93.31,18.51,113.1,31.6,27.23,18,19.46,33.47-5.05,47.68-81.46,47.22-364.47,45.15-449.07,3.71-41.99-20.57-39.44-37.58.37-57.3,28.53-14.13,59.44-17.51,90.56-21.55,11.85-1.54,24.24-3.05,36.16-3.97,6.98-.54,15.64-2.01,22.29-2.35,44.84-2.29,100.47-.88,145.67.95,11.98.49,35.83.03,45.97,1.23Z"/>
        <path class="cls-1" d="M120.5,133.38h94.64c4.08,3.1,2.07,4.75-.93,7.42h-92.78c-3.96-1.67-4.95-5.45-.93-7.42Z"/>
      </g>
    </g>
    <g>
      <path class="cls-3" d="M367.75,51.39l.25.92c3.65,5.47,5.09,24.32,8.62,31.3,24.17,2.87,93.31,18.51,113.1,31.6,27.23,18,19.46,33.47-5.05,47.68-81.46,47.22-364.47,45.15-449.07,3.71-41.99-20.57-39.44-37.58.37-57.3,28.53-14.13,59.44-17.51,90.56-21.55,11.85-1.54,24.24-3.05,36.16-3.97"/>
      <path class="cls-3" d="M367.75,51.39c-5.14-6.82-26.22-15.97-35.24-16.36-7.43-.32-26.07,7.03-27.55,6.51-2.32-.82-7.95-8.4-11.42-10.6-31.21-19.82-61.41-41.65-94.64-9.46-3.24,3.14-9.9,14.35-12.48,15.15-1.39.43-23.83-3.92-27.28-4.71-.31-.07-.63-.1-.94-.17-23.97-5.53-40.02-17.07-63.21,3.28-4.5,3.94-13.36,18.15-14.81,18.93-3.04,1.63-11.08-.13-14.88.56-25.16,4.55-36.82,27.47-30.03,50.98"/>
      <path class="cls-3" d="M153.84,38.69c-18.08,12.49-28.79,19.98-27.52,44.58"/>
      <path class="cls-3" d="M367.75,51.39l.8-.75c21.81-20.41,52.12-21.57,72.52,2.02,4.08,4.72,8.95,19.09,9.82,19.76,1.6,1.23,13.15.27,18.01,2.13,15.27,5.84,25.26,20.07,22.22,36.56"/>
      <line class="cls-4" x1="113.54" y1="122.25" x2="274.06" y2="122.25"/>
      <path class="cls-2" d="M181.27,81.4l3.71.02c44.84-2.29,100.47-.88,145.67.95"/>
    </g>
  </g>
</svg>