<?xml version="1.0" encoding="UTF-8"?>
<svg id="Layer_1" data-name="Layer 1" xmlns="http://www.w3.org/2000/svg" viewBox="0 0 512 512">
  <defs>
    <style>
      .cls-1 {
        fill: #fff;
      }

      .cls-2 {
        fill: #ca856c;
      }

      .cls-3 {
        fill: #888a8d;
      }

      .cls-4 {
        fill: #e9bca3;
      }

      .cls-5 {
        fill: #757c84;
      }

      .cls-6 {
        fill: #414e57;
      }

      .cls-7 {
        fill: none;
        stroke: #414e57;
        stroke-linecap: round;
        stroke-linejoin: round;
        stroke-width: 5.54px;
      }
    </style>
  </defs>
  <g id="Generative_Object" data-name="Generative Object">
    <g>
      <rect class="cls-1" width="512" height="512"/>
      <g>
        <path class="cls-2" d="M190.99,171.34c.74.14,2.58,2.58,3.28,2.52.19-.02,2.21-2.41,2.77-2.52,11.04-2.2,40.89-.79,53.17,0,67.68,4.34,88.62,30.47,91.46,97.01.37,8.69,1.26,40.55-1.01,47.12-.6,1.73-1.61,1.91-2.02,3.59.17.05,1.7,2.14,2.52,2.45l-1.51,19.4,4.84.25c-5.27,9.97-18.24,10.81-24.69,1.51-3.46-4.99-1.77-12.08-2.32-17.64-3.3-33.64-5.98-96.8-39.81-112.78-32.43-15.32-67.5-11.22-100.28-17.44-14.12-2.68-19.75-17.44-8.06-25.9l.25,3.93c3.37,1.21,17.88-2.17,21.42-1.51Z"/>
        <path class="cls-4" d="M347.21,314.96l-6.55.5c2.27-6.57,1.38-38.42,1.01-47.12-2.84-66.54-23.79-92.67-91.46-97.01-12.28-.79-42.12-2.2-53.17,0v-6.15c36.2-2.21,98.76-5.1,126.49,21.77,29.33,28.43,25.97,90.08,23.69,128Z"/>
        <path class="cls-4" d="M191.5,165.59c-.16.01-.34-.11-.5-.1v5.85c-3.54-.66-18.05,2.72-21.42,1.51l-.25-3.93c5.45-3.94,15.22-2.94,21.67-3.43.16-.01.34.11.5.1Z"/>
        <path class="cls-4" d="M346.91,322.02c-.42,5.3-.1,14.76-2.42,19.15l-4.84-.25,1.51-19.4c2,.78,3.68.48,5.74.5Z"/>
        <path class="cls-5" d="M347.21,314.96c-.14,2.37-.11,4.71-.3,7.06-2.07-.03-3.74.27-5.74-.5-.82-.32-2.35-2.4-2.52-2.45.41-1.68,1.42-1.87,2.02-3.59l6.55-.5Z"/>
        <path class="cls-3" d="M197.04,165.19v6.15c-.56.11-2.58,2.5-2.77,2.52-.7.06-2.54-2.38-3.28-2.52v-5.85c.16-.01.34.11.5.1,1.85-.14,3.7-.29,5.54-.4Z"/>
      </g>
    </g>
    <g>
      <path class="cls-6" d="M319.57,315.71c7.39,1.1,15.2-1.4,22.54,1.51,0,0-1.63,5.3-1.63,5.3-6.97-2.69-14.65.03-22.06-1.39,0,0-2.72-.53-2.72-.53l1.15-5.43,2.72.54h0Z"/>
      <path class="cls-7" d="M317.48,325.04c.55,5.56-1.15,12.65,2.32,17.64,6.45,9.29,19.42,8.46,24.69-1.51,2.32-4.39,2-13.85,2.42-19.15.19-2.35.16-4.69.3-7.06,2.29-37.92,5.65-99.57-23.69-128-27.73-26.87-90.29-23.98-126.49-21.77-1.85.11-3.7.27-5.54.4-.16.01-.34-.11-.5-.1-6.45.49-16.22-.51-21.67,3.43-11.69,8.46-6.05,23.23,8.06,25.9,32.79,6.21,67.85,2.12,100.28,17.44,33.83,15.98,36.51,79.14,39.81,112.78Z"/>
      <path class="cls-6" d="M191.24,193.01v-20.91s5.54,0,5.54,0c0,1.12,0,19.2,0,20.91,0,0,0,2.77,0,2.77h-5.54v-2.77h0Z"/>
    </g>
  </g>
</svg>