<?xml version="1.0" encoding="UTF-8"?>
<svg id="Layer_1" data-name="Layer 1" xmlns="http://www.w3.org/2000/svg" viewBox="0 0 512 512">
  <defs>
    <style>
      .cls-1 {
        fill: #f37243;
      }

      .cls-2 {
        fill: #f5f2af;
      }

      .cls-3 {
        fill: #fff;
      }

      .cls-4 {
        fill: none;
        stroke: #555545;
        stroke-linecap: round;
        stroke-linejoin: round;
        stroke-width: 5.54px;
      }

      .cls-5 {
        fill: #f4ae6a;
      }
    </style>
  </defs>
  <g id="Generative_Object" data-name="Generative Object">
    <g>
      <rect class="cls-3" width="512" height="512"/>
      <g>
        <path class="cls-5" d="M259.26,272.66c-.12.12-.24.24-.36.36-26.81,27.58-56.18,67.64-85.55,90.52-12.22,9.52-30.41-9.27-26.41-19.86,2.1-5.56,39.82-42.78,47.07-49.39.13-.12.28-.21.4-.32,15.3-13.91,29.88-25.56,45.08-40.35.12-.12.24-.24.36-.36-.12.12-.24.24-.36.36l1.47,1.46,16.46,16.46,1.48,1.49c.12-.12.24-.24.36-.36Z"/>
        <path class="cls-2" d="M308.11,223.96c-16.22,16.29-32.83,32.23-48.85,48.71-.12.12-.24.24-.36.36l-1.48-1.49-16.46-16.46-1.47-1.46c.12-.12.24-.24.36-.36,16.36-15.94,32.31-32.39,48.52-48.5.12-.12.24-.24.37-.36-.12.12-.24.24-.37.36l1.45,1.46,16.65,16.05,1.64,1.68Z"/>
        <path class="cls-2" d="M344.4,187.64c-7.97,8.14-16.17,16.06-24.19,24.15l-1.81-1.23-16.46-16.46-1.18-1.79c8.26-8.18,16.35-16.54,24.67-24.67.12-.12.24-.24.36-.36-.12.12-.24.24-.36.36l1.74,1.74,15.9,16.51,1.7,1.39c-.12.12-.24.24-.36.36Z"/>
        <path class="cls-2" d="M356.5,175.61l-1.82-1.34-16.46-16.46-1.39-1.42c.13-.12.25-.24.37-.36,9.41-8.85,10.69-15.7,22.6-4.36s5.94,14.09-3.31,23.93Z"/>
        <path class="cls-1" d="M300.76,192.31l1.18,1.79,16.46,16.46,1.81,1.23c-4.03,4.06-8.06,8.12-12.1,12.17l-1.64-1.68-16.65-16.05-1.45-1.46c.12-.12.24-.24.37-.36,4.03-4.01,7.98-8.09,12.02-12.09Z"/>
        <path class="cls-1" d="M356.5,175.61c-3.77,4.01-7.89,7.73-11.74,11.66-.12.12-.24.24-.36.36.12-.12.24-.24.36-.36l-1.7-1.39-15.9-16.51-1.74-1.74c.12-.12.24-.24.36-.36,3.7-3.61,7.29-7.33,11.05-10.88.13-.12.25-.24.37-.36-.13.12-.25.24-.37.36l1.39,1.42,16.46,16.46,1.82,1.34Z"/>
      </g>
    </g>
    <g>
      <line class="cls-4" x1="338.23" y1="157.82" x2="354.69" y2="174.28"/>
      <line class="cls-4" x1="301.94" y1="194.1" x2="318.4" y2="210.56"/>
      <path class="cls-4" d="M194.02,294.3c.13-.12.28-.21.4-.32,15.3-13.91,29.88-25.56,45.08-40.35.12-.12.24-.24.36-.36,16.36-15.94,32.31-32.39,48.52-48.5.12-.12.24-.24.37-.36,4.03-4.01,7.98-8.09,12.02-12.09,8.26-8.18,16.35-16.54,24.67-24.67.12-.12.24-.24.36-.36,3.7-3.61,7.29-7.33,11.05-10.88.13-.12.25-.24.37-.36,9.41-8.85,10.69-15.7,22.6-4.36s5.94,14.09-3.31,23.93c-3.77,4.01-7.89,7.73-11.74,11.66-.12.12-.24.24-.36.36-7.97,8.14-16.17,16.06-24.19,24.15-4.03,4.06-8.06,8.12-12.1,12.17-16.22,16.29-32.83,32.23-48.85,48.71-.12.12-.24.24-.36.36-26.81,27.58-56.18,67.64-85.55,90.52-12.22,9.52-30.41-9.27-26.41-19.86,2.1-5.56,39.82-42.78,47.07-49.39Z"/>
      <line class="cls-4" x1="327.17" y1="169.38" x2="343.07" y2="185.89"/>
      <line class="cls-4" x1="289.82" y1="206.22" x2="306.47" y2="222.28"/>
      <line class="cls-4" x1="265.16" y1="230.89" x2="281.61" y2="247.35"/>
      <line class="cls-4" x1="240.97" y1="255.08" x2="257.43" y2="271.54"/>
      <line class="cls-4" x1="216.78" y1="279.27" x2="233.38" y2="295.87"/>
      <line class="cls-4" x1="192.61" y1="298.9" x2="213.56" y2="320.44"/>
    </g>
  </g>
</svg>