<?xml version="1.0" encoding="UTF-8"?>
<svg id="Layer_1" data-name="Layer 1" xmlns="http://www.w3.org/2000/svg" viewBox="0 0 442.4 477.58">
  <defs>
    <style>
      .cls-1 {
        fill: none;
        stroke: #445464;
        stroke-linecap: round;
        stroke-linejoin: round;
        stroke-width: 14.77px;
      }

      .cls-2 {
        fill: #ef9771;
      }
    </style>
  </defs>
  <g id="Generative_Object" data-name="Generative Object">
    <path class="cls-2" d="M225.77,136.19c70.55-3.17,127.97,20.22,164.39,83.78,19.12,33.36,23.37,74.47,44.85,106.99l-1.06,1.71c-23.84-2.34-43.46-6.77-60.46-25.35-3.79-4.14-13.38-23.05-14.77-23.52-3.92-1.33-70.57,14.15-81.14,16.12-1.76.33-3.77-.08-5.38,1.22,0,23.28.03,46.34-1.01,69.62-2.12,1.41-5.22-1.83-6.66-2.95-10.7-8.33-20.29-18.29-28.84-28.84-2.1.44-10.03-.79-10.97.53-1.74,2.44-1.87,29.22-6.86,31.13-2.09.8-6.93-1.16-9.3.97-8.8-21.1-29.02-48.84-40.83-70.04-1.65-2.97-3.94-6.06-4.17-9.58-84.97-20.29-104.38-65.25-105.91-145.36,1.86.59,3.75.14,5.64.17,10.99.16,22.01,1.27,33.01,1.51l1.11.05.55,1c13.57,34.61,45.78,6.62,70.84-.52,17.29-4.93,39.03-7.85,56.98-8.65Z"/>
    <g>
      <path class="cls-1" d="M97.4,144.37l.55,1c13.57,34.61,45.78,6.62,70.84-.52,17.29-4.93,39.03-7.85,56.98-8.65,70.55-3.17,127.97,20.22,164.39,83.78,19.12,33.36,23.37,74.47,44.85,106.99l-1.06,1.71c-23.84-2.34-43.46-6.77-60.46-25.35-3.79-4.14-13.38-23.05-14.77-23.52-3.92-1.33-70.57,14.15-81.14,16.12"/>
      <path class="cls-1" d="M97.4,144.37l.06-111.16C92.18,11.61,67.68.03,48.51,12.53c-6.77,4.41-9.28,10.63-13.72,13.93-7.35,5.46-41.23,14.74-21.1,26.59,13.13,7.73,32.13,2.24,43.68,22.37,3.61,6.28.06,55.98.28,67.22,1.52,80.11,20.94,125.07,105.91,145.36,8.95,2.14,43.25,4.71,47.89,7.56,1.97,1.21,18.66,32.54,24.25,39.43,8.55,10.55,18.14,20.5,28.84,28.84"/>
      <path class="cls-1" d="M167.19,296.66l.53.91c11.82,21.2,32.04,48.93,40.83,70.04,1.05,2.51,3.42,4.5,2.81,7.63l-18.54,93.22-41.97.43"/>
      <path class="cls-1" d="M63.28,142.8c10.99.16,22.01,1.27,33.01,1.51l1.11.05"/>
      <path class="cls-1" d="M272.2,272.73v24.42c0,23.28.03,46.34-1.01,69.62-1.51,33.68-5.47,67.36-7.61,101l-40.97,2.42"/>
    </g>
  </g>
</svg>