<?xml version="1.0" encoding="UTF-8"?>
<svg id="Layer_1" data-name="Layer 1" xmlns="http://www.w3.org/2000/svg" viewBox="0 0 246.32 173.89">
  <defs>
    <style>
      .cls-1 {
        fill: none;
        stroke: #4c4e4f;
        stroke-linecap: round;
        stroke-linejoin: round;
        stroke-width: 8.33px;
      }

      .cls-2 {
        fill: #fab285;
      }

      .cls-3 {
        fill: #4c4e4f;
      }

      .cls-4 {
        fill: #f58661;
      }

      .cls-5 {
        fill: #fcf7bd;
      }
    </style>
  </defs>
  <g id="Generative_Object" data-name="Generative Object">
    <g>
      <path class="cls-4" d="M61.14,8.78c-.48,4.05-1.57,8.77-3.58,12.26-1.23,2.14-6.55,7.65-6.69,8.18-.17.67,1.49,5.94,1.61,7.64.36,5.15-1.69,9.73,2.15,13.84-.46,1.77-.67,1.85-2.15,1.78-.39,1.03,4.21,5.27,5.19,5.74,6.18,2.93,23.73-2.31,31.48-2.77,20.44-1.2,34.84,4.7,47.75,22.35,1.36,1.86,5.83,10.51,6.44,11.08,1.18,1.09,2.4.43,3.72.59,11.56,29.52,17.49,69.32,55.66,64.87,17.53-2.04,22.08-7.79,35.64-17.99,6.53-4.91,3.04,5.32,1.21,8.49-4.58-1.21-4.51,1.5-6.98,3.16-28.5,19.31-67.5,18.35-87.82-14.04-.63-1.01-4.86-8.21-5.01-8.7-.06-.19,1.55-2.41-.51-3.3-2.16,2.55-5.59,7.35-8.03,9.11-2.29,1.66-10.16,4.1-11.27,5.86-3.21,5.06,3.98,24.28-4.51,29.67-3.33,2.11-36.07,1.04-42.57,1.11.5-13.96,18.96-7.45,27.01-9.02,10.36-2.02,8.59-22.38,5.9-30.26-2.48-7.28-9.71-12.84-11.8-19.38-.72-2.24-1.77-13.28-2.15-13.84-1.44-.96-2.37,2.18-3.04,2.57-.95.55-2.07-.86-2.89.81-1.43,2.93,4.41,14.59,6,17.39.08.14.21.25.29.4-.08-.14-.21-.25-.29-.4-.36.09-2.27.79-2.4.79-1.82-.04-13.1-8.55-15.38-10.28-2.59-1.97-4.46-4.97-7.71-5.14-.63,1.35-1.22,2.1-1.9,3.26-2.66,4.58-11.61,14.09-9.96,19.67.84,2.85,4.34,5.28,2.58,8.7-1.36,2.65-4.59,2.93-6.8,1.5.5-5.25-1.61-9.15-1.07-14.75.43-4.48,3.55-9.46,3.58-14.04,8.01-8.08-2.05-17.94-5.37-25.12-4.16-9.01-6.03-19.17-2.5-28.87l-3.1-.78c-2,2.67-4.97,5.78-7.92,7.12-.1.05-.22.07-.32.12-3.98,1.68-8.93-.07-12.27.46-7.52,1.19-10.56,7.51-16.67-4.75.63-.84,1.88-.13,2.54-.4,3.83-1.56,15.43-17.86,19.67-20.57,3.47-2.21,10.82-1.54,13.24-3.16,1.49-1,3.47-8.6,4.83-10.88,3.08-5.15,10.48-10.38,16.17-10.09Z"/>
      <path class="cls-5" d="M239.56,144.85c-22.05,38.11-92.21,31.17-107.63-12.18l-.72-1.58c2.44-1.77,5.88-6.56,8.03-9.11,2.07.89.46,3.11.51,3.3.15.49,4.37,7.69,5.01,8.7,20.31,32.39,59.32,33.36,87.82,14.04,2.46-1.67,2.39-4.38,6.98-3.16Z"/>
      <path class="cls-2" d="M147.06,89.47c-1.32-.16-2.54.49-3.72-.59-.61-.56-5.08-9.21-6.44-11.08-12.92-17.65-27.32-23.55-47.75-22.35-7.74.45-25.29,5.7-31.48,2.77-.98-.46-5.58-4.71-5.19-5.74,1.47.07,1.69-.01,2.15-1.78,6.08,6.53,29.91-1.13,38.99-1.58,25.98-1.3,43.4,14.72,53.44,40.34Z"/>
      <path class="cls-2" d="M72.87,167.71c-.88,0-7.08.59-7.12.17,1.51-5.29,3.33-9.69,7.84-12.75,6.13-4.15,24.59-.05,27.11-3.16,1.36-1.68.79-14.24.4-16.96-1.33-9.31-4.82-11.42-8.91-18.64-.08-.14-.21-.25-.29-.4-1.59-2.8-7.43-14.45-6-17.39.81-1.67,1.94-.25,2.89-.81.68-.39,1.6-3.53,3.04-2.57.38.56,1.43,11.6,2.15,13.84,2.1,6.54,9.32,12.1,11.8,19.38,2.68,7.88,4.46,28.24-5.9,30.26-8.05,1.57-26.51-4.94-27.01,9.02Z"/>
      <path class="cls-5" d="M52.84,105.69c-1.83,1.84-2.87,1.58-5.15,1.19.3-1.12,1.25-3.05,1.29-3.96.14-3.05-7.17-11.55-9.16-15.03-5.02-8.81-6.91-17.77-5.88-28.08l-.3-1.65c.11-.04.22-.07.32-.12,2.94-1.34,5.91-4.45,7.92-7.12l3.1.78c-3.53,9.71-1.65,19.87,2.5,28.87,3.31,7.17,13.38,17.04,5.37,25.12Z"/>
      <path class="cls-2" d="M61.14,8.78c-5.68-.29-13.09,4.93-16.17,10.09-1.36,2.28-3.34,9.88-4.83,10.88-2.42,1.62-9.77.95-13.24,3.16-4.24,2.71-15.84,19-19.67,20.57-.66.27-1.91-.45-2.54.4-3.14-6.29,8.59-14.03,12.38-17.8,2.25-2.24,3.86-5.67,6.44-7.67,3.31-2.57,12.65-2.83,14.26-4.62.58-.65,1.83-6.53,3.2-8.67,4.68-7.29,12.46-10.65,20.3-10.95,1.19.38.02,3.4-.12,4.62Z"/>
      <path class="cls-5" d="M92.19,116.37c4.08,7.22,7.57,9.33,8.91,18.64-.75-.12-1.51-.39-2.22-.64-13.51-4.9-25.54-15.4-33.46-28.43l-.9-1.33c.67-1.16,1.27-1.91,1.9-3.26,3.25.16,5.12,3.16,7.71,5.14,2.28,1.73,13.57,10.25,15.38,10.28.13,0,2.03-.7,2.4-.79.08.14.21.25.29.4Z"/>
      <path class="cls-2" d="M52.84,105.69c-.03,4.58-3.14,9.56-3.58,14.04-.54,5.61,1.57,9.5,1.07,14.75-10.78-6.97-5.08-18.4-2.65-27.61,2.28.39,3.32.66,5.15-1.19Z"/>
    </g>
    <g>
      <path class="cls-1" d="M42.35,50.33l-.48.59c-2,2.67-4.97,5.78-7.92,7.12-.1.05-.22.07-.32.12-3.98,1.68-8.93-.07-12.27.46-7.52,1.19-10.56,7.51-16.67-4.75-3.14-6.29,8.59-14.03,12.38-17.8,2.25-2.24,3.86-5.67,6.44-7.67,3.31-2.57,12.65-2.83,14.26-4.62.58-.65,1.83-6.53,3.2-8.67,4.68-7.29,12.46-10.65,20.3-10.95,1.19.38.02,3.4-.12,4.62-.48,4.05-1.57,8.77-3.58,12.26-1.23,2.14-6.55,7.65-6.69,8.18-.17.67,1.49,5.94,1.61,7.64.36,5.15-1.69,9.73,2.15,13.84,6.08,6.53,29.91-1.13,38.99-1.58,25.98-1.3,43.4,14.72,53.44,40.34,11.56,29.52,17.49,69.32,55.66,64.87,17.53-2.04,22.08-7.79,35.64-17.99,6.53-4.91,3.04,5.32,1.21,8.49-22.05,38.11-92.21,31.17-107.63-12.18"/>
      <path class="cls-1" d="M33.94,59.81c-1.03,10.32.86,19.27,5.88,28.08,1.98,3.48,9.3,11.98,9.16,15.03-.04.91-.99,2.84-1.29,3.96-2.44,9.2-8.13,20.64,2.65,27.61,2.21,1.43,5.43,1.14,6.8-1.5,1.76-3.42-1.73-5.85-2.58-8.7-1.65-5.58,7.3-15.09,9.96-19.67.67-1.16,1.27-1.91,1.9-3.26,3.43-7.4,2.49-16.92-.05-24.46"/>
      <path class="cls-1" d="M65.42,105.94c7.92,13.03,19.95,23.53,33.46,28.43"/>
      <path class="cls-3" d="M89.65,100.41c.08-.12.14-.36.16-.42.03-.06.03-.19.04-.17,0-.06,0,.01,0,.09.77,4.6,3.26,9.27,5.38,13.48,0,0,.17.31.17.31l.08.15.04.07c-.07-.13-.14-.22-.18-.29-.2-.24.02-.05.47.69l.18.31c2.02,3.58,4.38,6.25,6.35,10.15,2.17,4.31,3.01,9.02,3.21,13.75.16,4.4.42,8.83-.36,13.23-.37,1.8-1.4,3.46-3.06,4.32-4.29,2-8.66,1.19-12.96,1.27-4.32.04-9.32-.51-13.13,1.18-3.53,2.31-4.9,5.76-6.28,10.51,0,0,.14-1.6.14-1.6-.12-1.8-1.76-3.39-3.34-3.56-.02,0,.05,0,.13,0h.67s1.61-.08,1.61-.08c.89-.06,3.79-.27,4.6-.24,12.34.04,24.87.63,37.14-.23.98-.09,1.92-.19,2.86-.42,0,0,.03,0,.01,0,0,0-.1.03-.1.03-.09.04-.19.09-.26.15.3-.23.58-.44.82-.76,4.51-6.78-2.49-22.52,3.2-28.61,3.2-2.87,7.61-3.83,11.23-5.82,2.65-1.94,4.5-4.93,6.79-7.62,1.43-1.72,3.13-3.74,4.55-5.41,1.95-3.14,6.14-8.84,8.94-4.42,1.38,2.78-1.16,7.12-2.58,9.8-1.3,1.57-3.22,3.77-4.44,5.27-2.72,3.21-5.24,7.24-9.13,9.61-2.53,1.41-5.97,2.62-8.48,3.91-.44.22-.83.46-1,.58,0,0,0,0,0,0,0,0,0,0,.05-.05.07-.06.13-.13.19-.21.05-.05.12-.21.12-.19,0,0,.01,0,.02-.01-.09.08-.23,1.03-.25,1.96-.16,9.25,3.76,21.9-5.13,28.7-.47.36-1.02.64-1.56.86-2.8.93-5.85.99-8.73,1.17-10.63.45-21.1.16-31.67.04-.79-.04-2.47,0-3.26-.02-2.09.1-4.99.43-7.12.27-2.63-.13-4.81-2.67-4.01-5.42,1.27-4.53,3.14-9.36,6.78-12.83,3.74-4.02,9.41-4.84,14.35-4.91,4.96-.23,10.17.46,14.92-.15.31-.05.46-.15.29-.05-.42.25-.81.68-1.01,1.14-.02.03-.04.14-.04.12,0-.04,0-.05.02-.09.28-1.61.3-3.28.33-4.97-.05-3.83,0-7.79-.81-11.56-1.02-5.75-5.24-9.92-8.02-15,.32.51.36.51,0,.06-.64-.96-1.26-2.3-1.8-3.33-1.99-4.09-3.89-8.09-4.93-12.63-.38-1.77-.55-3.96.33-5.76,2.56-4.86,9.74-1.39,7.49,3.65h0Z"/>
    </g>
  </g>
</svg>