<?xml version="1.0" encoding="UTF-8"?>
<svg id="Layer_1" data-name="Layer 1" xmlns="http://www.w3.org/2000/svg" viewBox="0 0 494.34 389.33">
  <defs>
    <style>
      .cls-1 {
        fill: #b4bbcb;
      }

      .cls-2 {
        fill: #f15855;
      }

      .cls-3 {
        fill: #381d16;
      }

      .cls-4 {
        fill: #fff;
      }

      .cls-5 {
        fill: #4d5a68;
      }

      .cls-5, .cls-6 {
        stroke: #381d16;
      }

      .cls-5, .cls-6, .cls-7 {
        stroke-linecap: round;
        stroke-linejoin: round;
        stroke-width: 12.8px;
      }

      .cls-6, .cls-7 {
        fill: none;
      }

      .cls-8 {
        fill: #e0e5ee;
      }

      .cls-9 {
        fill: #371d17;
      }

      .cls-10 {
        fill: #f8abad;
      }

      .cls-11 {
        fill: #f47d77;
      }

      .cls-7 {
        stroke: #381e16;
      }
    </style>
  </defs>
  <g id="Generative_Object" data-name="Generative Object">
    <g>
      <path class="cls-8" d="M185.96,373.29c-98.6-29.24-127.62-94.93-97.29-189.27.09-.27.21-.53.3-.81,2.54-7.8,7.05-18.27,10.56-25.81.14-.3.24-.63.38-.93,8.15-17.29,18.93-33,28.99-49.16l.52-.84c5.91-.55,15.49,2.24,14.19,9.89-.4,2.33-21.13,32.82-24.62,40.37-34.92,75.63-35.99,150.84,41.85,196.45,5.72,3.35,22.29,8.25,25.6,10.83.62.48-1.24,7.91-.49,9.26Z"/>
      <path class="cls-8" d="M132.87,15.34c.33.16.66.32.99.48l-3.53,8.48C71.11.35,8.96,49.64,18.56,113.42c.49,3.26,7.79,21.55,6.89,22.65l-7.93,1.05C-23.36,62.38,56.03-21.42,132.87,15.34Z"/>
      <path class="cls-8" d="M438.32,15.38l-.76,7.94c-47.07-15.55-94.1,3.87-114.23,49.24l-8.83-6.74.85-.22c20.31-48.58,74.06-73.88,122.97-50.22Z"/>
      <path class="cls-11" d="M143.62,67.63c3.21,4.67,4.84,11.87,8.76,16.47-3.09,2.44-9.86,17.62-13.19,18.98-2.53,1.04-7.83-2.28-9.24,2.56l-.52.84-.52.84c-10.06,16.16-20.84,31.87-28.99,49.16-.14.3-.24.63-.38.93l-4.4-1.8c-8.25-3.22-18.87-5.94-26.36-10.58-.35-.22-.63-.56-.98-.79,2.4-14.93-10.05-23.43-9.85-40.67.36-30.57,29.22-51.41,58.59-44.81,9.26,2.08,16.87,12.84,26.49,7.88.22.31.37.67.59.98Z"/>
      <path class="cls-2" d="M143.62,67.63c-.22-.32-.37-.67-.59-.98-9.62,4.96-17.23-5.79-26.49-7.88-29.37-6.61-58.23,14.24-58.59,44.81-.2,17.24,12.24,25.74,9.85,40.67.35.23.63.57.98.79-.35-.22-.63-.56-.98-.79C-10.41,93.96,87.9-11.86,143.03,66.65c.22.31.37.67.59.98Z"/>
      <g>
        <path class="cls-1" d="M315.35,65.6l-.85.22,8.83,6.74c20.13-45.37,67.16-64.79,114.23-49.24l.76-7.94c79.23,38.33,58.77,155.6-27.33,167.06l-4.75,1.57c-.1-.3-.25-.59-.36-.89.1.3.25.59.36.89,51.31,151.47-92.74,227.1-220.27,189.28-.75-1.34,1.11-8.77.49-9.26-3.31-2.59-19.88-7.48-25.6-10.83-77.84-45.61-76.77-120.82-41.85-196.45,3.49-7.55,24.22-38.04,24.62-40.37,1.3-7.65-8.29-10.45-14.19-9.89l-.52.84.52-.84.52-.84c1.41-4.84,6.71-1.53,9.24-2.56,3.33-1.36,10.11-16.54,13.19-18.98-3.92-4.6-5.55-11.8-8.76-16.47-.22-.32-.37-.67-.59-.98C87.9-11.86-10.41,93.96,67.8,144.24c.35.23.63.57.98.79,7.49,4.64,18.11,7.36,26.36,10.58l4.4,1.8c.14-.3.24-.63.38-.93-.14.3-.24.63-.38.93-3.52,7.54-8.02,18-10.56,25.81-.09.27-.21.53-.3.81.09-.27.21-.53.3-.81l-4.94-.69c-28.18-4.08-52.76-20.28-66.51-45.41l7.93-1.05c.89-1.09-6.4-19.38-6.89-22.65C8.96,49.64,71.11.35,130.33,24.3l3.53-8.48c-.33-.16-.66-.32-.99-.48.33.16.66.32.99.48,23.76,11.74,32.38,26.06,43.92,48.52.77,1.5,1.67,2.94,2.35,4.47,46.58-24.13,86.3-22.6,134.37-3l.85-.22Z"/>
        <g>
          <g>
            <path class="cls-11" d="M449.28,69.6c24.06,43.14-13.13,72.54-49.39,86.83-1.78.7-3.48.65-5.02,1.75-3.68-7.93-8.51-20.12-13.17-27.01-3.58-5.29-15.46-17.02-21.44-24.15,1.29-30.51,23.28-52.51,54.65-49.24,14.22,1.48,20.66,13.5,34.37,11.82Z"/>
            <path class="cls-2" d="M449.28,69.6c-13.71,1.68-20.14-10.33-34.37-11.82-31.37-3.28-53.36,18.73-54.65,49.24-4.81-5.73-11.65-12.74-17.23-17.95,9.85-54.29,78.36-69.49,106.25-19.47Z"/>
          </g>
          <g>
            <path class="cls-10" d="M115.56,260.64c7.74-1.5,34.5-1.7,36.93,8.37,4.54,18.8-26.65,18.94-37.91,16.25-10.79-2.58-12.32-22.03.98-24.62Z"/>
            <path class="cls-10" d="M352.88,260.64c8.46-1.56,32.53-1.87,35.94,8.37,7.33,21.99-43.62,21.46-46.28,6.89-1.33-7.26,3.07-13.92,10.34-15.26Z"/>
            <g>
              <path class="cls-9" d="M330.23,173.98c45.81-5.6,45.68,61.26,4.92,61.05-36.65-.19-40.64-56.69-4.92-61.05Z"/>
              <path class="cls-4" d="M335.15,189.74c12.66-2.38,14.81,14.59,4.92,16.74-12.46,2.71-13.79-15.07-4.92-16.74Z"/>
            </g>
            <g>
              <path class="cls-9" d="M153.96,173.98c49.45-5.84,44.09,69.45-1.97,60.07-31.2-6.36-30.65-56.22,1.97-60.07Z"/>
              <path class="cls-4" d="M153.96,189.74c7.94-1.26,14.39,6.22,9.35,13.29-10.01,14.07-24.23-10.93-9.35-13.29Z"/>
            </g>
            <path class="cls-5" d="M245.05,201.16c31.41-2.9,38.44,42.4,34.47,65.39-2.47,14.32-4.89,19.81-19.69,23.63-.3.08-.67-.07-.98,0-6.65,1.54-26.97.81-32.5-2.76-20.37-13.16-15-83.15,18.71-86.26Z"/>
          </g>
        </g>
      </g>
    </g>
    <g>
      <path class="cls-7" d="M84.03,182.53c-28.18-4.08-52.76-20.28-66.51-45.41C-23.36,62.38,56.03-21.42,132.87,15.34c.33.16.66.32.99.48,23.76,11.74,32.38,26.06,43.92,48.52"/>
      <path class="cls-7" d="M410.99,182.44c86.1-11.46,106.56-128.74,27.33-167.06-48.91-23.66-102.66,1.63-122.97,50.22l-.85.22c-48.07-19.6-87.79-21.13-134.37,3-4.67,2.42-25.06,13.15-27.75,15.28-3.92-4.6-5.55-11.8-8.76-16.47-.22-.32-.37-.67-.59-.98C87.9-11.86-10.41,93.96,67.8,144.24c.35.23.63.57.98.79,7.49,4.64,18.11,7.36,26.36,10.58"/>
      <path class="cls-7" d="M130.47,104.81l-.52.84-.52.84-.52.84c-10.06,16.16-20.84,31.87-28.99,49.16-.14.3-.24.63-.38.93-3.52,7.54-8.02,18-10.56,25.81-.09.27-.21.53-.3.81-30.33,94.34-1.3,160.03,97.29,189.27,127.54,37.82,271.58-37.81,220.27-189.28-.1-.3-.25-.59-.36-.89-2.76-8.02-7.38-17.11-11.01-24.94s-8.51-20.12-13.17-27.01"/>
      <path class="cls-7" d="M399.89,156.44c36.26-14.3,73.45-43.69,49.39-86.83-27.89-50.02-96.4-34.82-106.25,19.47"/>
      <line class="cls-6" x1="247.02" y1="299.04" x2="246.99" y2="303.8"/>
      <path class="cls-3" d="M251.79,299.55c11.21,12.4,21.4,18.41,33.62,3.29,3.12-4.2,7.24-10.5,13.25-6.55,5.16,3.58-.41,11.02-3.38,14.71-8.92,11.14-22.04,17.77-36.04,10.86-6.73-3.22-12.3-8.52-17.04-13.82-5.44-6.54,3.74-14.68,9.58-8.49h0Z"/>
      <path class="cls-3" d="M252.2,307.53c-8.87,12.83-27.25,23.69-41.98,12.98-4.53-3.29-7.57-7.88-9.83-12.71-3.8-4.68-8.18-13.34.56-14.02,3.98,0,7.43,4.4,11.09,8.71,1.51,3.25,3.46,6.08,5.71,7.68,8.56,5.8,18.92-3.01,24.06-10.11,5.18-6.7,15.11.44,10.38,7.49h0Z"/>
    </g>
  </g>
</svg>