<?xml version="1.0" encoding="UTF-8"?>
<svg id="Layer_1" data-name="Layer 1" xmlns="http://www.w3.org/2000/svg" viewBox="0 0 510.46 508.38">
  <defs>
    <style>
      .cls-1 {
        fill: #88b75b;
      }

      .cls-2 {
        fill: #b9e0e9;
      }

      .cls-3 {
        fill: #f7943d;
      }

      .cls-4 {
        fill: #fdc97e;
      }

      .cls-5 {
        fill: none;
        stroke-width: 13.31px;
      }

      .cls-5, .cls-6 {
        stroke: #39383a;
        stroke-linecap: round;
        stroke-linejoin: round;
      }

      .cls-6 {
        fill: #fec80a;
        stroke-width: 12.1px;
      }
    </style>
  </defs>
  <g id="Generative_Object" data-name="Generative Object">
    <g>
      <path class="cls-4" d="M498.41,294.63l1.75.77c-8.42,44.39-36.61,99.5-67.7,132.25l-342.33-1.16-.97,11.93c-42.46-38.11-68.75-87.62-79.04-143.45l.77-.59,487.51.25Z"/>
      <path class="cls-1" d="M499.24,206.43c5.39,27.98,6.3,59.57,1.14,87.65l-1.97.54-487.51-.25-.77.59c-.06-.35.04-.73-.02-1.08-1.11-6.19-5.38-27.77-1.28-31.33,3.19-2.77,26.91-10.61,33.18-13.27,1.92-.82,4.11-2.76,6.84-2.76.55-18.81,6.08-57.81,18.91-71.66,29.34-31.65,43.55,56.84,43.76,73.68,0,.44-.02.87-.01,1.31,0-.44.02-.87.01-1.31l4.98-.5c22.26-8.47,34.77-21.06,57.35-3.84l4.57,1.25c9.46-68.52,49.25-65.4,55.68,2.44l5.84-.96c45.38-20.4,91.95-38.35,137.22-58.99,2.75-1.26,5.05-3.84,8.48-3.18,15.26-66.91,46.66-56.53,58.58,3.5l4.92.63,46.88,17.41,3.25.11Z"/>
      <path class="cls-3" d="M432.47,427.65c-90.91,95.78-246.16,97.95-343.3,10.76l.97-11.93,342.33,1.16Z"/>
      <g>
        <path class="cls-2" d="M499.24,206.43l-3.25-.11-46.88-17.41-4.92-.63c-11.92-60.04-43.32-70.41-58.58-3.5-3.43-.66-5.72,1.93-8.48,3.18-45.26,20.64-91.83,38.6-137.22,58.99l-5.84.96c-6.43-67.84-46.22-70.96-55.68-2.44l-4.57-1.25c-22.58-17.21-35.09-4.62-57.35,3.84l-4.98.5c0,.44-.02.87-.01,1.31,0-.44.02-.87.01-1.31-.21-16.83-14.42-105.33-43.76-73.68-12.83,13.84-18.36,52.85-18.91,71.66-2.73,0-4.91,1.94-6.84,2.76-6.26,2.66-29.99,10.5-33.18,13.27l-2.12-2.93C.63-41.86,441.87-91.37,499.24,206.43Z"/>
        <path class="cls-6" d="M221.28,54.57c.46-.1.93-.18,1.39-.26,51.7-8.83,65.35,69.91,13.42,78.78-51.09,8.72-65.35-68.12-14.81-78.52Z"/>
      </g>
    </g>
    <g>
      <path class="cls-5" d="M42.01,249.28c-6.26,2.66-29.99,10.5-33.18,13.27-4.1,3.56.17,25.13,1.28,31.33l.79.5,487.51.25"/>
      <line class="cls-5" x1="449.12" y1="188.91" x2="495.99" y2="206.32"/>
      <path class="cls-5" d="M173.85,244.2c-22.58-17.21-35.09-4.62-57.35,3.84"/>
      <path class="cls-5" d="M387.55,289.5c-12.03-29.64-8.99-73.77-1.93-104.73,15.26-66.91,46.66-56.53,58.58,3.5,1.9,9.58,2.82,25.98,3.4,36.19,1.14,20.18,2.69,46.19-8.06,63.68"/>
      <path class="cls-5" d="M378.26,187.47l-1.11.48c-45.26,20.64-91.83,38.6-137.22,58.99"/>
      <path class="cls-5" d="M102.1,289.38c7.03-13.08,9.45-24.74,9.4-39.53,0-.44.02-.87.01-1.31-.21-16.83-14.42-105.33-43.76-73.68-12.83,13.84-18.36,52.85-18.91,71.66-.46,15.75-2.02,27.59,7.65,41.6"/>
      <path class="cls-5" d="M184.27,289.52c-6.23-14.13-7.97-28.76-5.85-44.07,9.46-68.52,49.25-65.4,55.68,2.44,1.37,14.45,2.91,27.78-6.22,40.25"/>
      <line class="cls-5" x1="79.86" y1="301.88" x2="79.86" y2="310.35"/>
      <line class="cls-5" x1="414.94" y1="303.09" x2="414.94" y2="309.14"/>
      <line class="cls-5" x1="208.09" y1="301.88" x2="208.09" y2="307.93"/>
      <line class="cls-5" x1="27.84" y1="346.64" x2="197.2" y2="345.4"/>
      <line class="cls-5" x1="482.69" y1="346.64" x2="352.04" y2="345.39"/>
      <line class="cls-5" x1="445.19" y1="407.13" x2="197.2" y2="403.43"/>
      <path class="cls-5" d="M6.72,259.62C.63-41.86,441.87-91.37,499.24,206.43c5.39,27.98,6.3,59.57,1.14,87.65-.08.44-.14.88-.22,1.32-8.42,44.39-36.61,99.5-67.7,132.25-90.91,95.78-246.16,97.95-343.3,10.76-42.46-38.11-68.75-87.62-79.04-143.45"/>
    </g>
  </g>
</svg>