<?xml version="1.0" encoding="UTF-8"?>
<svg id="Layer_1" data-name="Layer 1" xmlns="http://www.w3.org/2000/svg" viewBox="0 0 512 187.99">
  <defs>
    <style>
      .cls-1 {
        fill: none;
        stroke: #694229;
        stroke-linecap: round;
        stroke-linejoin: round;
        stroke-width: 9.58px;
      }

      .cls-2 {
        fill: #707179;
      }

      .cls-3 {
        fill: #694327;
      }

      .cls-4 {
        fill: #cb9f6e;
      }
    </style>
  </defs>
  <g id="Generative_Object" data-name="Generative Object">
    <g>
      <path class="cls-2" d="M48.71,40.28c-6.2,13.13,1.12,29.68,8.95,40.52,1.02,1.41,2.76,2.07,2.36,4.29-14.21-.19-62.26,8.85-54.36-18.08,3.4-11.59,27.31-20.02,38.11-25.45,1.23-.62,3.25-2.7,4.93-1.28Z"/>
      <g>
        <path class="cls-4" d="M60.02,85.1c.4-2.23-1.34-2.88-2.36-4.29-7.83-10.85-15.15-27.39-8.95-40.52C61.93,12.28,92.81-2.57,122.13,8.44c16.2,6.08,26.24,19.22,41.74,26.55,49.94,23.6,90.49-33.84,153.28-3.56,44.28,21.35,51.45,61.19,53.38,104.88l3.42-.18c21.36,3.36,109.81-5.99,123.17,3.83,16.77,12.33,11.82,37.23-8.9,41.61-7.65,1.62-90.67,1.59-98.54,0-15.93-3.22-18.18-12.58-19.16-26.43l-3.42.15c-15.51.14-31.03-.19-46.53,0-1.29.02-2.58-.07-3.86.14-.7,9.54.64,16.61-8.46,23.12-7.91,5.67-46.81,2.43-58.85,2.74-6.03.15-12.02,1.58-18.05,1.91,2.78-8.35,8.36-15.52,12.18-23.38.77-1.57,1.54-3.27,1.93-4.99-15.1.21-30.23.4-45.34.49-1.23,0-2.45-.13-3.67.07-.58,9.75,2.23,16.32-7.96,23.57-7.05,5.02-49.43,1.99-60.9,2.33-4.72.14-9.28,1.53-14,1.75,3.14-25.35,22.58-32.08,44.89-26.74.85-.64-.42-18.55-.46-21.32-1.58.63-2.97-.44-4.3-1.09-20.3-9.79-24.44-25.24-36.81-40.19-9.19-11.11-41.95-8.4-56.91-8.6Z"/>
        <path class="cls-3" d="M89.63,33.48c14.02-2.15,14.77,16.3,4.79,18.48-13.47,2.94-16.34-16.71-4.79-18.48Z"/>
      </g>
    </g>
    <g>
      <path class="cls-1" d="M43.77,41.56c-10.8,5.43-34.71,13.86-38.11,25.45-7.9,26.93,40.15,17.89,54.36,18.08,14.96.2,47.71-2.51,56.91,8.6,12.37,14.95,16.5,30.4,36.81,40.19"/>
      <path class="cls-1" d="M57.66,80.8c-7.83-10.85-15.15-27.39-8.95-40.52C61.93,12.28,92.81-2.57,122.13,8.44c16.2,6.08,26.24,19.22,41.74,26.55,49.94,23.6,90.49-33.84,153.28-3.56,44.28,21.35,51.45,61.19,53.38,104.88.28,6.23-.44,12.61,0,18.82.98,13.85,3.23,23.21,19.16,26.43,7.87,1.59,90.89,1.62,98.54,0,20.72-4.38,25.67-29.28,8.9-41.61-13.36-9.82-101.82-.48-123.17-3.83"/>
      <path class="cls-1" d="M158.65,120.4c-.93,4.88-.68,9.67-.61,14.58.04,2.78,1.31,20.68.46,21.32-22.32-5.34-41.75,1.4-44.89,26.74,4.71-.23,9.28-1.61,14-1.75,11.48-.34,53.85,2.69,60.9-2.33,10.19-7.25,7.38-13.82,7.96-23.57.58-9.82.59-19.69,1.05-29.53"/>
      <path class="cls-1" d="M277.52,120.39l-.97,33.98c-10.33.88-20.72.33-31.08.47-15.1.21-30.23.4-45.34.49"/>
      <path class="cls-1" d="M320.58,155.29c15.51-.19,31.03.14,46.53,0"/>
      <path class="cls-1" d="M317.24,125.86c-.84,9.75.19,19.87-.52,29.57s.64,16.61-8.46,23.12c-7.91,5.67-46.81,2.43-58.85,2.74-6.03.15-12.02,1.58-18.05,1.91,2.78-8.35,8.36-15.52,12.18-23.38"/>
    </g>
  </g>
</svg>