<?xml version="1.0" encoding="UTF-8"?>
<svg id="Layer_1" data-name="Layer 1" xmlns="http://www.w3.org/2000/svg" viewBox="0 0 512 476.66">
  <defs>
    <style>
      .cls-1, .cls-2 {
        fill: none;
      }

      .cls-1, .cls-2, .cls-3, .cls-4, .cls-5 {
        stroke-linecap: round;
        stroke-linejoin: round;
        stroke-width: 12.24px;
      }

      .cls-1, .cls-3 {
        stroke: #3d515b;
      }

      .cls-6 {
        fill: #3c505b;
      }

      .cls-2, .cls-4, .cls-5 {
        stroke: #3c505b;
      }

      .cls-3 {
        fill: #bdcde5;
      }

      .cls-4, .cls-7 {
        fill: #f8f9fc;
      }

      .cls-5, .cls-8 {
        fill: #fcbd72;
      }
    </style>
  </defs>
  <g id="Generative_Object" data-name="Generative Object">
    <g>
      <path class="cls-8" d="M137.51,40.79c-26.27,16.17-50.13,36.54-70.2,59.96-2.79,3.26-5.14,6.55-7.75,10.02-.28.37-.48.8-.76,1.18l-3.98-3.32C-18.41,49.09,84.11-42.4,134.93,37.21l2.57,3.59Z"/>
      <path class="cls-8" d="M453.09,110.79c-21.08-27.83-47.23-51.18-76.84-69.73-.34-.21-.67-.43-1.01-.64.34.21.67.43,1.01.64l2.38-4.11c51.13-79.27,153.13,12.71,79.44,71.68l-4.98,2.15Z"/>
      <g>
        <path class="cls-3" d="M375.24,40.43c.34.21.67.43,1.01.64,29.61,18.55,55.77,41.89,76.84,69.73,84.77,111.94,68.51,247.67-56.47,321.47C180.12,560.12-115.37,345.8,58.8,111.95c.28-.38.48-.81.76-1.18,2.61-3.46,4.95-6.76,7.75-10.02,20.07-23.42,43.93-43.79,70.2-59.96,73.68-45.36,164.02-45.99,237.73-.37Z"/>
        <path class="cls-7" d="M251.6,370.82c9.46-3.24,28.82,16.08,41.43,18.27l-.47,5.47c-.76,3.95,1.67,19.43-1.52,21.31-5.17,3.05-57.08-1.86-67.11-.06-5.05-1.82-1.36-17.48-2.35-22.47l-.53-4.79c11.97-2.56,21.19-14.53,30.55-17.73Z"/>
        <path class="cls-5" d="M231.35,260.63c5.1-1.56,46.54-1.46,51.42.24,38.99,13.67,14.87,90.4-25.96,91.95-.45.02-.88.48-1.27.47-4.8-.14-27.78-14.98-31.53-18.72-17.7-17.7-20.77-65.36,7.35-73.94Z"/>
        <path class="cls-4" d="M157.71,176.18c.48-.18.98-.34,1.48-.47,15.85-4.12,22.86,20.67,6.34,24.93s-22.38-19.05-7.82-24.47Z"/>
        <path class="cls-4" d="M346.24,176.17c.49-.18.98-.34,1.48-.47,15.73-4.16,22.81,20.45,6.4,24.76-15.62,4.1-22.32-18.84-7.88-24.29Z"/>
      </g>
    </g>
    <g>
      <path class="cls-1" d="M134.93,37.21C84.11-42.4-18.41,49.09,54.82,108.63"/>
      <line class="cls-2" x1="255.85" y1="411.7" x2="255.65" y2="354.59"/>
      <path class="cls-1" d="M458.06,108.64c73.69-58.97-28.31-150.96-79.44-71.68"/>
      <path class="cls-6" d="M327.64,383.2c-8.91,3.41-16.87,9.67-26.78,11.68-7.75,1.88-15.61-1.32-22.14-5.18-6.83-3.82-13.03-8.44-19.95-11.7-1.51-.68-2.7-1.12-4.06-1.37-.21-.04-1.01-.1-1.08-.03-.05-.03-.39.15-.45.16,0,0-.76.3-.76.3-5.91,2.9-10.92,7.79-16.78,11.52-5.3,3.53-12.23,6.69-18.96,6.43-8.32-.37-15.61-4.57-22.43-8.19-2.73-1.45-5.35-2.77-7.76-3.64-7.19-5.26-12.95-10.64-11.39-16.41,2.28-6.99,11.44,1.34,15.46,4.86,6.43,2.34,11.74,5.87,17.54,8.53,8.6,4.05,13.06,3.18,20.86-1.84,6.06-3.92,11.51-9.2,18.46-12.43,0,0,1.44-.58,1.44-.58,3.06-1.28,6.35-1.19,9.42-.45,9.89,2.74,17.8,9.4,26.5,14.17,3.65,1.98,6.71,3.77,10.48,4.12,6.76-.09,12.77-4.09,18.94-7.18,2.87-1.49,5.85-3.06,9.42-4.34,1.58-1.84,2.95-4.05,4.71-5.7,2.13-2.52,7.38-2.92,9.39.31,2.07,5.42-6.18,13.1-10.05,16.94h0Z"/>
      <path class="cls-2" d="M221.58,393.34c.99,4.99-2.7,20.66,2.35,22.47,10.03-1.8,61.94,3.12,67.11.06,3.19-1.88.76-17.36,1.52-21.31"/>
    </g>
  </g>
</svg>